<svg width="55" height="55" viewBox="0 0 55 60" fill="none" xmlns="http://www.w3.org/2000/svg">
    <g clip-path="url(#clip0_1_532)" filter="url(#filter0_d_1_532)">
        <g clip-path="url(#clip1_1_532)">
            <circle cx="25" cy="25" r="25" fill="#D94F00"/>
            <path d="M30.1429 33.5714H19.8571C19.4025 33.5714 18.9665 33.752 18.645 34.0735C18.3235 34.395 18.1429 34.8311 18.1429 35.2857C18.1429 35.7404 18.3235 36.1764 18.645 36.4979C18.9665 36.8194 19.4025 37 19.8571 37H30.1429C30.5975 37 31.0335 36.8194 31.355 36.4979C31.6765 36.1764 31.8571 35.7404 31.8571 35.2857C31.8571 34.8311 31.6765 34.395 31.355 34.0735C31.0335 33.752 30.5975 33.5714 30.1429 33.5714ZM35.2857 13H14.7143C14.2596 13 13.8236 13.1806 13.5021 13.5021C13.1806 13.8236 13 14.2596 13 14.7143V30.1429C13 30.5975 13.1806 31.0335 13.5021 31.355C13.8236 31.6765 14.2596 31.8571 14.7143 31.8571H35.2857C35.7404 31.8571 36.1764 31.6765 36.4979 31.355C36.8194 31.0335 37 30.5975 37 30.1429V14.7143C37 14.2596 36.8194 13.8236 36.4979 13.5021C36.1764 13.1806 35.7404 13 35.2857 13ZM33.5714 28.4286H16.4286V16.4286H33.5714V28.4286Z" fill="white"/>
        </g>
    </g>
    <defs>
        <filter id="filter0_d_1_532" x="-5" y="0" width="60" height="60" filterUnits="userSpaceOnUse" color-interpolation-filters="sRGB">
            <feFlood flood-opacity="0" result="BackgroundImageFix"/>
            <feColorMatrix in="SourceAlpha" type="matrix" values="0 0 0 0 0 0 0 0 0 0 0 0 0 0 0 0 0 0 127 0" result="hardAlpha"/>
            <feOffset dy="5"/>
            <feGaussianBlur stdDeviation="2.5"/>
            <feColorMatrix type="matrix" values="0 0 0 0 0.85098 0 0 0 0 0.309804 0 0 0 0 0 0 0 0 0.05 0"/>
            <feBlend mode="normal" in2="BackgroundImageFix" result="effect1_dropShadow_1_532"/>
            <feBlend mode="normal" in="SourceGraphic" in2="effect1_dropShadow_1_532" result="shape"/>
        </filter>
        <clipPath id="clip0_1_532">
            <rect width="50" height="50" fill="white"/>
        </clipPath>
        <clipPath id="clip1_1_532">
            <rect width="50" height="50" fill="white"/>
        </clipPath>
    </defs>
</svg>
