<svg width="55" height="55" viewBox="0 0 55 60" fill="none" xmlns="http://www.w3.org/2000/svg">
    <g clip-path="url(#clip0_1_548)" filter="url(#filter0_d_1_548)">
        <g clip-path="url(#clip1_1_548)">
            <circle cx="25" cy="25" r="25" fill="#D94F00"/>
            <path d="M29 11H21C19.4087 11 17.8826 11.6321 16.7574 12.7574C15.6321 13.8826 15 15.4087 15 17V33C15 34.5913 15.6321 36.1174 16.7574 37.2426C17.8826 38.3679 19.4087 39 21 39H29C30.5913 39 32.1174 38.3679 33.2426 37.2426C34.3679 36.1174 35 34.5913 35 33V17C35 15.4087 34.3679 13.8826 33.2426 12.7574C32.1174 11.6321 30.5913 11 29 11ZM31 33C31 33.5304 30.7893 34.0391 30.4142 34.4142C30.0391 34.7893 29.5304 35 29 35H21C20.4696 35 19.9609 34.7893 19.5858 34.4142C19.2107 34.0391 19 33.5304 19 33V17C19 16.4696 19.2107 15.9609 19.5858 15.5858C19.9609 15.2107 20.4696 15 21 15H29C29.5304 15 30.0391 15.2107 30.4142 15.5858C30.7893 15.9609 31 16.4696 31 17V33ZM27 29H23C22.4696 29 21.9609 29.2107 21.5858 29.5858C21.2107 29.9609 21 30.4696 21 31C21 31.5304 21.2107 32.0391 21.5858 32.4142C21.9609 32.7893 22.4696 33 23 33H27C27.5304 33 28.0391 32.7893 28.4142 32.4142C28.7893 32.0391 29 31.5304 29 31C29 30.4696 28.7893 29.9609 28.4142 29.5858C28.0391 29.2107 27.5304 29 27 29Z" fill="white"/>
        </g>
    </g>
    <defs>
        <filter id="filter0_d_1_548" x="-5" y="0" width="60" height="60" filterUnits="userSpaceOnUse" color-interpolation-filters="sRGB">
            <feFlood flood-opacity="0" result="BackgroundImageFix"/>
            <feColorMatrix in="SourceAlpha" type="matrix" values="0 0 0 0 0 0 0 0 0 0 0 0 0 0 0 0 0 0 127 0" result="hardAlpha"/>
            <feOffset dy="5"/>
            <feGaussianBlur stdDeviation="2.5"/>
            <feColorMatrix type="matrix" values="0 0 0 0 0.85098 0 0 0 0 0.309804 0 0 0 0 0 0 0 0 0.05 0"/>
            <feBlend mode="normal" in2="BackgroundImageFix" result="effect1_dropShadow_1_548"/>
            <feBlend mode="normal" in="SourceGraphic" in2="effect1_dropShadow_1_548" result="shape"/>
        </filter>
        <clipPath id="clip0_1_548">
            <rect width="50" height="50" fill="white"/>
        </clipPath>
        <clipPath id="clip1_1_548">
            <rect width="50" height="50" fill="white"/>
        </clipPath>
    </defs>
</svg>
