<svg width="40" height="40" viewBox="0 0 40 40" fill="none" xmlns="http://www.w3.org/2000/svg">
    <g clip-path="url(#clip0_1_263)">
        <g clip-path="url(#clip1_1_263)">
            <circle cx="20" cy="20" r="20" fill="white" fill-opacity="0.75"/>
            <path d="M16.3291 27.167C17.1201 27.167 17.5947 26.6836 17.5947 25.8398V18.6943H17.6738L23.1758 26.4023C23.5801 26.9648 23.9316 27.167 24.5029 27.167C25.3379 27.167 25.8037 26.7012 25.8037 25.875V15.4775C25.8037 14.625 25.3379 14.1416 24.5381 14.1416C23.7383 14.1416 23.2637 14.625 23.2637 15.4775V22.5791H23.1934L17.709 14.915C17.3047 14.3613 16.9355 14.1416 16.3906 14.1416C15.5469 14.1416 15.0547 14.625 15.0547 15.4688V25.8398C15.0547 26.6836 15.5293 27.167 16.3291 27.167Z" fill="#D94F00"/>
            <path d="M14 21.1992H26.8584V22.8691H14V21.1992Z" fill="#D94F00"/>
        </g>
    </g>
    <defs>
        <clipPath id="clip0_1_263">
            <rect width="40" height="40" fill="white"/>
        </clipPath>
        <clipPath id="clip1_1_263">
            <rect width="40" height="40" fill="white"/>
        </clipPath>
    </defs>
</svg>
